<svg id="Layer_3" viewBox="0 0 64 64" xmlns="http://www.w3.org/2000/svg" data-name="Layer 3"><path d="m23 46.979c-.691-.03-1.383-.09-2.056-.181l.267-1.983c.613.083 1.244.138 1.874.165zm2.061 0-.091-2c.624-.029 1.255-.085 1.877-.169l.266 1.982c-.684.09-1.375.152-2.057.184zm-6.146-.541c-.674-.153-1.344-.336-1.992-.546l.618-1.9c.589.192 1.2.359 1.814.5zm-3.924-1.269c-.637-.271-1.263-.573-1.862-.9l.951-1.76c.545.294 1.115.569 1.7.816zm-3.631-1.951c-.569-.375-1.131-.782-1.669-1.211l1.245-1.565c.491.391 1 .763 1.524 1.106zm-3.23-2.57c-.493-.47-.973-.971-1.427-1.487l1.5-1.32c.415.472.854.93 1.3 1.36zm-2.716-3.1c-.4-.551-.787-1.129-1.141-1.718l1.714-1.03c.324.538.674 1.066 1.042 1.569zm-2.123-3.53c-.3-.618-.573-1.255-.815-1.9l1.871-.707c.221.585.471 1.167.744 1.73zm-1.456-3.856c-.184-.66-.339-1.338-.461-2.013l1.967-.357c.112.615.254 1.232.421 1.835zm-.735-4.055c-.066-.679-.1-1.372-.1-2.059h2c0 .628.031 1.262.087 1.882zm45.814-.048-1.992-.176c.05-.621.078-1.255.078-1.883l1.376-.063.624.046q0 1.056-.091 2.076zm-43.83-3.9-1.992-.172c.059-.683.149-1.371.269-2.045l1.969.35c-.114.617-.197 1.246-.251 1.869zm41.83-.133c-.057-.621-.144-1.248-.258-1.864l1.967-.363c.125.675.22 1.362.282 2.044zm-41.17-3.57-1.93-.525c.179-.657.391-1.317.632-1.965l1.875.7c-.221.591-.421 1.194-.582 1.792zm40.487-.129c-.168-.6-.367-1.2-.589-1.789l1.87-.709c.243.641.461 1.3.645 1.959zm-39.173-3.4-1.8-.866c.3-.616.624-1.228.976-1.817l1.717 1.023c-.329.545-.629 1.104-.898 1.667zm37.837-.121c-.274-.561-.577-1.118-.9-1.652l1.705-1.028c.354.586.685 1.2.986 1.811zm-35.917-3.106-1.62-1.174c.4-.554.834-1.1 1.283-1.614l1.509 1.313c-.41.475-.805.967-1.172 1.475zm33.968-.107c-.372-.506-.769-1-1.182-1.467l1.5-1.322c.451.511.886 1.051 1.292 1.605zm-31.497-2.734-1.387-1.441c.5-.476 1.016-.934 1.55-1.361l1.25 1.56c-.487.391-.962.809-1.413 1.242zm29.008-.09c-.454-.431-.933-.846-1.423-1.236l1.242-1.566c.537.425 1.061.88 1.558 1.352zm-26.074-2.269-1.107-1.663c.571-.38 1.165-.737 1.766-1.064l.958 1.758c-.553.298-1.095.625-1.617.969zm23.124-.072c-.521-.342-1.066-.665-1.62-.962l.944-1.764c.607.325 1.2.68 1.773 1.054zm-19.817-1.72-.79-1.836c.628-.271 1.277-.518 1.929-.731l.624 1.9c-.598.195-1.19.42-1.763.667zm16.5-.052c-.571-.243-1.165-.464-1.764-.656l.611-1.9c.658.211 1.309.453 1.936.72zm-12.927-1.121-.449-1.949c.665-.153 1.348-.278 2.028-.372l.274 1.98c-.622.086-1.245.206-1.853.341zm9.343-.028c-.606-.137-1.235-.247-1.854-.328l.26-1.983c.677.088 1.361.209 2.03.36zm-5.616-.484-.094-2c.366-.015.736-.023 1.104-.023.318 0 .638.006.955.02l-.083 2c-.304-.015-.606-.02-.923-.02s-.642.008-.959.023z" fill="#6c81be"/><path d="m37 62-13-40 38 13-17 8z" fill="#6c81be"/><path d="m38.921 57.526-9.921-30.526 29 9.921-12.974 6.105z" fill="#88a0cc"/><path d="m44.581 43.995.419-.995.961-.453-19.812-19.812-2.149-.735.681 2.095z" fill="#9ab2da"/></svg>